{"asset":{"version":"2.0","generator":"Blockbench 4.11.2 glTF exporter"},"scenes":[{"nodes":[12],"name":"blockbench_export"}],"scene":0,"nodes":[{"translation":[0,0.07500000000000001,-0.07500000000000001],"name":"trigger","mesh":0},{"rotation":[0.09584575252022398,0,0,0.9953961983671789],"translation":[0,0.17499999999999993,-0.3562500000000003],"name":"chainsaw","mesh":1},{"rotation":[0.7071067811865475,0,0,0.7071067811865476],"translation":[0,0.4687499999999999,0.48750000000000043],"name":"cylinder","mesh":2},{"name":"cuboid","mesh":3},{"rotation":[-0.7071067811865475,0,0,0.7071067811865476],"translation":[0,0.26249999999999984,-0.056249999999999974],"name":"cylinder","mesh":4},{"translation":[0,0.20625000000000002,0.06875],"name":"toppartthing","children":[3,4]},{"translation":[0,0.1875,0.0625],"name":"cuboid","mesh":5},{"rotation":[0.7071067811865475,0,0,0.7071067811865476],"translation":[0,0.40625,-0.037500000000000006],"name":"recoilthing","mesh":6},{"rotation":[0.7071067811865475,0,0,0.7071067811865476],"translation":[0,0.46875,-0.08125000000000002],"name":"barrel","mesh":7},{"name":"wegwqeg","children":[6,7,8]},{"rotation":[-0.573576436351046,0,0,0.8191520442889918],"translation":[0,0.125,-0.22499999999999998],"name":"magthing1","mesh":8},{"translation":[0,0.0125,-0.11875000000000002],"name":"mag","children":[10]},{"children":[0,1,2,5,9,11]}],"bufferViews":[{"buffer":0,"byteOffset":0,"byteLength":2688,"target":34962,"byteStride":12},{"buffer":0,"byteOffset":2688,"byteLength":2688,"target":34962,"byteStride":12},{"buffer":0,"byteOffset":5376,"byteLength":1792,"target":34962,"byteStride":8},{"buffer":0,"byteOffset":7168,"byteLength":648,"target":34963},{"buffer":0,"byteOffset":7816,"byteLength":1716,"target":34962,"byteStride":12},{"buffer":0,"byteOffset":9532,"byteLength":1716,"target":34962,"byteStride":12},{"buffer":0,"byteOffset":11248,"byteLength":1144,"target":34962,"byteStride":8},{"buffer":0,"byteOffset":12392,"byteLength":416,"target":34963},{"buffer":0,"byteOffset":12808,"byteLength":2016,"target":34962,"byteStride":12},{"buffer":0,"byteOffset":14824,"byteLength":2016,"target":34962,"byteStride":12},{"buffer":0,"byteOffset":16840,"byteLength":1344,"target":34962,"byteStride":8},{"buffer":0,"byteOffset":18184,"byteLength":432,"target":34963},{"buffer":0,"byteOffset":18616,"byteLength":13608,"target":34962,"byteStride":12},{"buffer":0,"byteOffset":32224,"byteLength":13608,"target":34962,"byteStride":12},{"buffer":0,"byteOffset":45832,"byteLength":9072,"target":34962,"byteStride":8},{"buffer":0,"byteOffset":54904,"byteLength":3264,"target":34963},{"buffer":0,"byteOffset":58168,"byteLength":1440,"target":34962,"byteStride":12},{"buffer":0,"byteOffset":59608,"byteLength":1440,"target":34962,"byteStride":12},{"buffer":0,"byteOffset":61048,"byteLength":960,"target":34962,"byteStride":8},{"buffer":0,"byteOffset":62008,"byteLength":288,"target":34963},{"buffer":0,"byteOffset":62296,"byteLength":7896,"target":34962,"byteStride":12},{"buffer":0,"byteOffset":70192,"byteLength":7896,"target":34962,"byteStride":12},{"buffer":0,"byteOffset":78088,"byteLength":5264,"target":34962,"byteStride":8},{"buffer":0,"byteOffset":83352,"byteLength":1908,"target":34963},{"buffer":0,"byteOffset":85260,"byteLength":1440,"target":34962,"byteStride":12},{"buffer":0,"byteOffset":86700,"byteLength":1440,"target":34962,"byteStride":12},{"buffer":0,"byteOffset":88140,"byteLength":960,"target":34962,"byteStride":8},{"buffer":0,"byteOffset":89100,"byteLength":288,"target":34963},{"buffer":0,"byteOffset":89388,"byteLength":1440,"target":34962,"byteStride":12},{"buffer":0,"byteOffset":90828,"byteLength":1440,"target":34962,"byteStride":12},{"buffer":0,"byteOffset":92268,"byteLength":960,"target":34962,"byteStride":8},{"buffer":0,"byteOffset":93228,"byteLength":288,"target":34963},{"buffer":0,"byteOffset":93516,"byteLength":2304,"target":34962,"byteStride":12},{"buffer":0,"byteOffset":95820,"byteLength":2304,"target":34962,"byteStride":12},{"buffer":0,"byteOffset":98124,"byteLength":1536,"target":34962,"byteStride":8},{"buffer":0,"byteOffset":99660,"byteLength":552,"target":34963}],"buffers":[{"byteLength":100212,"uri":"data:application/octet-stream;base64,"}],"accessors":[{"bufferView":0,"componentType":5126,"count":224,"max":[0.012500000186264515,0.3125,0.0625],"min":[-0.012500000186264515,0.1875,-0.07500000298023224],"type":"VEC3"},{"bufferView":1,"componentType":5126,"count":224,"max":[1,1,0.9701424837112427],"min":[-1,-1,-1],"type":"VEC3"},{"bufferView":2,"componentType":5126,"count":224,"max":[0.5990234613418579,0.623046875],"min":[0.15683594346046448,0.15625],"type":"VEC2"},{"bufferView":3,"componentType":5123,"count":324,"max":[223],"min":[0],"type":"SCALAR"},{"bufferView":4,"componentType":5126,"count":143,"max":[0.012500000186264515,0.2750000059604645,0.03750000149011612],"min":[-0.012500000186264515,0.21875,-0.037501875311136246],"type":"VEC3"},{"bufferView":5,"componentType":5126,"count":143,"max":[1,1,1],"min":[-1,-1,-1],"type":"VEC3"},{"bufferView":6,"componentType":5126,"count":143,"max":[0.6128906011581421,0.6304093599319458],"min":[0.0005273437709547579,0],"type":"VEC2"},{"bufferView":7,"componentType":5123,"count":207,"max":[142],"min":[0],"type":"SCALAR"},{"bufferView":8,"componentType":5126,"count":168,"max":[0.08124999701976776,0.574999988079071,0.08124999701976776],"min":[-0.08124999701976776,-0.0625,-0.08124999701976776],"type":"VEC3"},{"bufferView":9,"componentType":5126,"count":168,"max":[1,1,1],"min":[-1,-0.9339314699172974,-1],"type":"VEC3"},{"bufferView":10,"componentType":5126,"count":168,"max":[0.3349017798900604,0.6391749978065491],"min":[0.0005499999970197678,0],"type":"VEC2"},{"bufferView":11,"componentType":5123,"count":216,"max":[167],"min":[0],"type":"SCALAR"},{"bufferView":12,"componentType":5126,"count":1134,"max":[0.051029156893491745,0.3218625783920288,0.359375],"min":[-0.051029156893491745,0.1765165477991104,-0.3824460804462433],"type":"VEC3"},{"bufferView":13,"componentType":5126,"count":1134,"max":[1,1,0.9968273639678955],"min":[-1,-0.9999758005142212,-0.9993991255760193],"type":"VEC3"},{"bufferView":14,"componentType":5126,"count":1134,"max":[0.6419734358787537,0.645493745803833],"min":[0,0.0011150240898132324],"type":"VEC2"},{"bufferView":15,"componentType":5123,"count":1632,"max":[1133],"min":[0],"type":"SCALAR"},{"bufferView":16,"componentType":5126,"count":120,"max":[0.012500000186264515,0.2874999940395355,0.012500000186264515],"min":[-0.012500000186264515,0.21250000596046448,-0.012500000186264515],"type":"VEC3"},{"bufferView":17,"componentType":5126,"count":120,"max":[1,1,1],"min":[-1,-1,-1],"type":"VEC3"},{"bufferView":18,"componentType":5126,"count":120,"max":[0.616406261920929,0.6171875],"min":[0.18791718780994415,0.125],"type":"VEC2"},{"bufferView":19,"componentType":5123,"count":144,"max":[119],"min":[0],"type":"SCALAR"},{"bufferView":20,"componentType":5126,"count":658,"max":[0.05624999850988388,0.26249927282333374,0.19374999403953552],"min":[-0.05624999850988388,-0.125,-0.40625],"type":"VEC3"},{"bufferView":21,"componentType":5126,"count":658,"max":[0.9990332126617432,1,1],"min":[-0.9990332126617432,-1,-0.9989770650863647],"type":"VEC3"},{"bufferView":22,"componentType":5126,"count":658,"max":[0.6339489221572876,0.62109375],"min":[0,0],"type":"VEC2"},{"bufferView":23,"componentType":5123,"count":954,"max":[657],"min":[0],"type":"SCALAR"},{"bufferView":24,"componentType":5126,"count":120,"max":[0.03125,0.40625,0.03125],"min":[-0.03125,0.09375,-0.03125],"type":"VEC3"},{"bufferView":25,"componentType":5126,"count":120,"max":[1,1,1],"min":[-1,-1,-1],"type":"VEC3"},{"bufferView":26,"componentType":5126,"count":120,"max":[0.5625,0.5625],"min":[0.3286796808242798,0],"type":"VEC2"},{"bufferView":27,"componentType":5123,"count":144,"max":[119],"min":[0],"type":"SCALAR"},{"bufferView":28,"componentType":5126,"count":120,"max":[0.03125,0.518750011920929,0.03125],"min":[-0.03125,-0.01875000074505806,-0.03125],"type":"VEC3"},{"bufferView":29,"componentType":5126,"count":120,"max":[1,1,1],"min":[-1,-1,-1],"type":"VEC3"},{"bufferView":30,"componentType":5126,"count":120,"max":[0.5625,0.5625],"min":[0.14117968082427979,0.3125],"type":"VEC2"},{"bufferView":31,"componentType":5123,"count":144,"max":[119],"min":[0],"type":"SCALAR"},{"bufferView":32,"componentType":5126,"count":192,"max":[0.05624999850988388,0.32451504468917847,0.21099232137203217],"min":[-0.05624999850988388,0.13655255734920502,-0.22318662703037262],"type":"VEC3"},{"bufferView":33,"componentType":5126,"count":192,"max":[1,0.9998390674591064,0.9768823385238647],"min":[-1,-0.999930739402771,-0.9860237836837769],"type":"VEC3"},{"bufferView":34,"componentType":5126,"count":192,"max":[0.617285966873169,0.6146234273910522],"min":[0.0006155136507004499,0],"type":"VEC2"},{"bufferView":35,"componentType":5123,"count":276,"max":[191],"min":[0],"type":"SCALAR"}],"materials":[{"pbrMetallicRoughness":{"metallicFactor":0,"roughnessFactor":1,"baseColorTexture":{"index":0}},"alphaMode":"MASK","alphaCutoff":0.05,"doubleSided":true},{"pbrMetallicRoughness":{"metallicFactor":0,"roughnessFactor":1,"baseColorTexture":{"index":1}},"alphaMode":"MASK","alphaCutoff":0.05,"doubleSided":true}],"textures":[{"sampler":0,"source":0,"name":"texture"},{"sampler":1,"source":1,"name":"texture"}],"samplers":[{"magFilter":9728,"minFilter":9728,"wrapS":33071,"wrapT":33071},{"magFilter":9728,"minFilter":9728,"wrapS":33071,"wrapT":33071}],"images":[{"mimeType":"image/png","uri":"data:image/png;base64,"},{"mimeType":"image/png","uri":"data:image/png;base64,"}],"meshes":[{"primitives":[{"mode":4,"attributes":{"POSITION":0,"NORMAL":1,"TEXCOORD_0":2},"indices":3,"material":0}]},{"primitives":[{"mode":4,"attributes":{"POSITION":4,"NORMAL":5,"TEXCOORD_0":6},"indices":7,"material":0}]},{"primitives":[{"mode":4,"attributes":{"POSITION":8,"NORMAL":9,"TEXCOORD_0":10},"indices":11,"material":1}]},{"primitives":[{"mode":4,"attributes":{"POSITION":12,"NORMAL":13,"TEXCOORD_0":14},"indices":15,"material":0}]},{"primitives":[{"mode":4,"attributes":{"POSITION":16,"NORMAL":17,"TEXCOORD_0":18},"indices":19,"material":0}]},{"primitives":[{"mode":4,"attributes":{"POSITION":20,"NORMAL":21,"TEXCOORD_0":22},"indices":23,"material":0}]},{"primitives":[{"mode":4,"attributes":{"POSITION":24,"NORMAL":25,"TEXCOORD_0":26},"indices":27,"material":0}]},{"primitives":[{"mode":4,"attributes":{"POSITION":28,"NORMAL":29,"TEXCOORD_0":30},"indices":31,"material":0}]},{"primitives":[{"mode":4,"attributes":{"POSITION":32,"NORMAL":33,"TEXCOORD_0":34},"indices":35,"material":0}]}]}